<?xml version="1.0" standalone="no"?>
<!DOCTYPE svg PUBLIC "-//W3C//DTD SVG 20010904//EN"
 "http://www.w3.org/TR/2001/REC-SVG-20010904/DTD/svg10.dtd">
<svg version="1.0" xmlns="http://www.w3.org/2000/svg"
 width="100.000000pt" height="100.000000pt" viewBox="0 0 100.000000 100.000000"
 preserveAspectRatio="xMidYMid meet">
<metadata>
Created by potrace 1.16, written by Peter Selinger 2001-2019
</metadata>
<g transform="translate(0.000000,100.000000) scale(0.015129,-0.026455)"
fill="#000000" stroke="none">
<path d="M3395 2810 c-99 -60 -184 -111 -189 -112 -4 -2 118 -213 271 -468
l279 -465 267 -3 c147 -1 267 0 267 2 0 16 -693 1156 -703 1156 -7 -1 -93 -50
-192 -110z"/>
<path d="M2925 2395 c-110 -67 -189 -121 -189 -129 1 -8 70 -127 153 -265 141
-235 151 -254 151 -301 l0 -50 60 0 60 0 0 55 0 55 205 0 205 0 0 -90 c0 -49
-2 -90 -4 -90 -2 0 -20 7 -39 15 -49 20 -133 19 -182 -4 -51 -23 -118 -98
-133 -149 -28 -91 -8 -167 63 -237 72 -73 168 -95 253 -60 24 10 38 12 40 5 2
-5 28 -10 58 -10 l54 0 0 310 0 310 -54 0 -55 0 -217 363 c-119 199 -222 368
-228 375 -9 9 -52 -13 -201 -103z m606 -934 c35 -35 39 -44 39 -91 0 -47 -4
-56 -39 -91 -32 -33 -45 -39 -80 -39 -113 0 -178 112 -118 201 29 43 60 59
116 59 37 0 49 -5 82 -39z"/>
<path d="M2445 1975 c-104 -64 -189 -120 -187 -126 1 -5 14 -28 27 -49 l25
-40 265 0 c146 0 265 3 265 6 0 11 -192 324 -199 324 -3 0 -91 -52 -196 -115z"/>
<path d="M4535 1785 c-30 -30 -31 -54 -4 -89 24 -30 63 -34 97 -10 16 11 22
25 22 54 0 67 -68 93 -115 45z"/>
<path d="M2870 1670 c0 -49 -2 -90 -4 -90 -2 0 -21 7 -42 16 -59 25 -150 16
-210 -22 -105 -64 -144 -198 -90 -308 55 -112 179 -162 297 -121 28 10 45 12
47 5 2 -5 28 -10 58 -10 l54 0 0 310 0 310 -55 0 -55 0 0 -90z m-44 -203 c68
-62 54 -171 -27 -213 -85 -43 -189 18 -189 112 0 84 49 133 133 134 40 0 53
-5 83 -33z"/>
<path d="M4377 1606 c-90 -33 -131 -121 -92 -196 19 -37 55 -56 158 -81 90
-23 107 -32 107 -60 0 -25 -30 -39 -84 -39 -45 0 -86 24 -86 50 0 6 -28 10
-64 10 l-65 0 9 -29 c24 -84 70 -113 190 -119 72 -4 95 -1 133 16 71 31 106
104 83 172 -15 47 -59 74 -165 100 -96 24 -122 40 -104 68 25 41 129 35 140
-8 5 -17 14 -20 64 -20 66 0 70 5 45 65 -10 23 -28 41 -56 55 -54 28 -161 36
-213 16z"/>
<path d="M2115 1591 c-54 -24 -119 -100 -135 -156 -52 -185 133 -355 315 -290
25 9 43 11 49 5 6 -6 32 -10 58 -10 l48 0 0 230 0 230 -54 0 c-30 0 -56 -5
-58 -10 -2 -7 -16 -5 -40 5 -50 20 -134 19 -183 -4z m169 -110 c41 -27 55 -57
56 -115 0 -43 -4 -53 -39 -87 -32 -33 -45 -39 -80 -39 -137 0 -192 158 -84
239 37 27 107 28 147 2z"/>
<path d="M3040 1375 l0 -236 58 3 57 3 3 233 2 232 -60 0 -60 0 0 -235z"/>
<path d="M3870 1594 c-156 -67 -195 -281 -73 -396 65 -62 174 -85 250 -53 26
11 39 12 49 4 7 -5 34 -9 61 -7 l48 3 0 225 0 225 -49 3 c-27 2 -53 -1 -59 -7
-6 -6 -23 -4 -49 5 -52 18 -134 17 -178 -2z m164 -113 c40 -26 55 -57 56 -109
1 -149 -201 -185 -250 -44 -13 37 -13 47 0 84 28 79 126 114 194 69z"/>
</g>
</svg>
